<svg xmlns="http://www.w3.org/2000/svg" viewBox="0 0 24 24" aria-hidden="true">
  <path fill="#ffffff" d="M12 .5C5.65.5.5 5.65.5 12c0 5.1 3.29 9.4 7.86 10.93.58.11.79-.25.79-.56v-2.15c-3.2.7-3.87-1.36-3.87-1.36-.52-1.33-1.27-1.68-1.27-1.68-1.04-.71.08-.7.08-.7 1.15.08 1.75 1.18 1.75 1.18 1.02 1.75 2.68 1.25 3.33.95.1-.74.4-1.25.72-1.54-2.55-.29-5.23-1.28-5.23-5.69 0-1.26.45-2.29 1.18-3.1-.12-.29-.51-1.47.11-3.06 0 0 .96-.31 3.16 1.18a10.92 10.92 0 0 1 5.76 0c2.2-1.49 3.16-1.18 3.16-1.18.62 1.59.23 2.77.11 3.06.74.81 1.18 1.84 1.18 3.1 0 4.42-2.69 5.39-5.25 5.68.41.35.77 1.04.77 2.1v3.21c0 .31.21.68.8.56A11.52 11.52 0 0 0 23.5 12C23.5 5.65 18.35.5 12 .5Z"/>
</svg>
